<?xml version="1.0" encoding="UTF-8" standalone="no"?>
<!-- Created with Inkscape (http://www.inkscape.org/) -->
<svg
   xmlns:dc="http://purl.org/dc/elements/1.1/"
   xmlns:cc="http://web.resource.org/cc/"
   xmlns:rdf="http://www.w3.org/1999/02/22-rdf-syntax-ns#"
   xmlns:svg="http://www.w3.org/2000/svg"
   xmlns="http://www.w3.org/2000/svg"
   xmlns:sodipodi="http://sodipodi.sourceforge.net/DTD/sodipodi-0.dtd"
   xmlns:inkscape="http://www.inkscape.org/namespaces/inkscape"
   id="svg9047"
   sodipodi:version="0.32"
   inkscape:version="0.45.1"
   width="768"
   height="213"
   version="1.0"
   sodipodi:docbase="/home/fajro/Desktop"
   sodipodi:docname="Logo_fa.svg"
   inkscape:output_extension="org.inkscape.output.svg.inkscape">
  <metadata
     id="metadata9052">
    <rdf:RDF>
      <cc:Work
         rdf:about="">
        <dc:format>image/svg+xml</dc:format>
        <dc:type
           rdf:resource="http://purl.org/dc/dcmitype/StillImage" />
        <dc:title>Ferrocarriles Argentinos</dc:title>
        <dc:date>09 sep 2007</dc:date>
        <dc:creator>
          <cc:Agent>
            <dc:title>Fajro</dc:title>
          </cc:Agent>
        </dc:creator>
        <dc:description>Logo de Ferrocarriles Argentinos. Dedicado a Galio. :P</dc:description>
        <cc:license
           rdf:resource="http://web.resource.org/cc/PublicDomain" />
        <dc:subject>
          <rdf:Bag>
            <rdf:li>Ferrocarriles</rdf:li>
            <rdf:li>Argentinos</rdf:li>
            <rdf:li>Argentina</rdf:li>
          </rdf:Bag>
        </dc:subject>
        <dc:language>es</dc:language>
        <dc:source>http://commons.wikimedia.org/wiki/Image:Logo_fa.png</dc:source>
        <dc:publisher>
          <cc:Agent>
            <dc:title>Wikimedia Commons</dc:title>
          </cc:Agent>
        </dc:publisher>
        <dc:relation>http://upload.wikimedia.org/wikipedia/commons/b/b0/Logo_fa.png</dc:relation>
      </cc:Work>
      <cc:License
         rdf:about="http://web.resource.org/cc/PublicDomain">
        <cc:permits
           rdf:resource="http://web.resource.org/cc/Reproduction" />
        <cc:permits
           rdf:resource="http://web.resource.org/cc/Distribution" />
        <cc:permits
           rdf:resource="http://web.resource.org/cc/DerivativeWorks" />
      </cc:License>
    </rdf:RDF>
  </metadata>
  <defs
     id="defs9050" />
  <sodipodi:namedview
     inkscape:window-height="594"
     inkscape:window-width="873"
     inkscape:pageshadow="2"
     inkscape:pageopacity="0.0"
     guidetolerance="10.0"
     gridtolerance="10.0"
     objecttolerance="10.0"
     borderopacity="1.0"
     bordercolor="#666666"
     pagecolor="#ffffff"
     id="base"
     inkscape:zoom="1.0195312"
     inkscape:cx="384"
     inkscape:cy="106.5"
     inkscape:window-x="133"
     inkscape:window-y="64"
     inkscape:current-layer="svg9047" />
  <path
     style="fill:#000000;fill-opacity:1;fill-rule:evenodd;stroke:#000000;stroke-width:1px;stroke-linecap:butt;stroke-linejoin:miter;stroke-opacity:1"
     d="M 10.750345,90.49648 L 42.130985,23.19325 L 81.563245,22.9868 L 75.163245,36.19971 L 49.769695,35.7868 L 45.227765,45.49003 L 70.414855,45.69648 L 65.047115,58.290028 L 39.240665,58.49648 L 24.376145,90.49648 L 10.750345,90.49648 z "
     id="F"
     inkscape:label="#path2161" />
  <path
     style="fill:#000000;fill-opacity:1;fill-rule:evenodd;stroke:#000000;stroke-width:1px;stroke-linecap:butt;stroke-linejoin:miter;stroke-opacity:1"
     d="M 285.3292,72.115966 L 298.1292,72.115966 L 292.14211,86.361128 C 290.47735,89.095045 288.40533,90.607147 284.29694,90.49016 L 257.25178,90.49016 C 254.79876,90.090599 253.70332,86.568619 255.59454,82.775124 L 279.54856,30.20629 C 281.89773,26.10729 283.56811,24.58768 288.63243,24.42564 L 313.48295,24.83855 C 316.07923,25.07128 318.404,28.42643 317.19908,31.23855 L 311.54856,43.41919 L 298.95501,43.41919 L 300.40017,39.90952 C 300.865,38.81032 299.83649,37.16809 298.1292,37.01919 L 290.07759,37.01919 C 289.45824,37.63855 288.97464,37.57912 288.21953,38.87726 L 271.90985,73.974031 C 271.166,75.620013 270.28639,77.537509 272.5292,77.69016 L 280.99372,77.483708 C 282.7717,77.67702 283.46363,76.512759 283.88404,75.212741 L 285.3292,72.115966 z "
     id="C"
     sodipodi:nodetypes="ccccccccccccccccccccc"
     inkscape:label="#path3142" />
  <path
     style="fill:#000000;fill-opacity:1;fill-rule:evenodd;stroke:#000000;stroke-width:1px;stroke-linecap:butt;stroke-linejoin:miter;stroke-opacity:1"
     d="M 472.99372,23.60616 L 486.00017,23.60616 L 455.44533,90.49648 L 442.43888,90.49648 L 472.99372,23.60616 z "
     id="I1"
     inkscape:label="#path3144" />
  <path
     style="fill:#000000;fill-opacity:1;fill-rule:evenodd;stroke:#000000;stroke-width:1px;stroke-linecap:butt;stroke-linejoin:miter;stroke-opacity:1"
     d="M 497.14856,24.43196 L 510.15501,24.43196 L 484.96791,76.870674 L 509.74211,76.664222 L 503.96146,90.49648 L 465.56146,90.083577 L 497.14856,24.43196 z "
     id="L"
     inkscape:label="#path3146" />
  <path
     style="fill:#000000;fill-opacity:1;fill-rule:evenodd;stroke:#000000;stroke-width:1px;stroke-linecap:butt;stroke-linejoin:miter;stroke-opacity:1"
     d="M 597.58727,114.45237 L 610.59372,114.45237 L 580.03888,181.3427 L 567.03243,181.3427 L 597.58727,114.45237 z "
     id="I2"
     inkscape:label="#path3212" />
  <path
     style="fill:#000000;fill-opacity:1;fill-rule:evenodd;stroke:#000000;stroke-width:1px;stroke-linecap:butt;stroke-linejoin:miter;stroke-opacity:1"
     d="M 57.101595,90.452771 L 88.829585,23.39971 L 126.77273,23.39971 L 120.71104,37.02989 L 95.387705,37.03864 L 91.513455,45.49003 L 116.60389,45.58669 L 110.76178,58.803969 L 85.324285,58.760013 L 77.057465,77.08588 L 102.30602,77.18254 L 96.261845,90.49648 L 57.101595,90.452771 z "
     id="E1"
     sodipodi:nodetypes="ccccccccccccc"
     inkscape:label="#path5154" />
  <path
     style="fill:#000000;fill-opacity:1;fill-rule:evenodd;stroke:#000000;stroke-width:1px;stroke-linecap:butt;stroke-linejoin:miter;stroke-opacity:1"
     d="M 341.71388,23.7339 L 265.96388,145.2339 L 224.30763,145.1089 L 215.05763,159.20265 L 257.02638,159.3589 L 243.30763,181.20265 L 263.93263,181.20265 L 276.83888,159.4839 L 303.83888,159.4839 L 298.83888,181.32765 L 315.52638,181.32765 L 353.52638,23.7339 L 341.71388,23.7339 z M 319.99513,90.515148 L 308.33888,144.4214 L 286.62013,144.4214 L 319.99513,90.515148 z "
     id="A"
     inkscape:label="#path5182" />
  <path
     style="fill:#000000;fill-opacity:1;fill-rule:evenodd;stroke:#000000;stroke-width:1px;stroke-linecap:butt;stroke-linejoin:miter;stroke-opacity:1"
     d="M 422.01203,131.93768 L 434.27468,132.19838 L 439.79608,121.28593 C 440.1328,119.86972 438.64462,115.45545 435.20119,114.82134 L 408.48118,114.86369 C 405.47217,115.12534 403.50597,116.95118 402.58256,119.16808 L 377.71271,173.05275 C 375.59398,177.51062 378.94996,181.18639 380.74173,181.3427 L 406.56811,181.02386 C 409.50991,180.96477 412.19102,179.47183 414.22037,175.76293 L 432.07565,137.66105 L 412.46673,137.3422 L 406.88696,149.13944 L 413.26384,148.98001 L 405.26366,167.58927 L 395.24914,167.79182 C 394.14319,168.32228 392.6462,166.63679 393.4955,165.08165 L 410.87251,129.53052 C 411.35578,128.60806 411.9694,127.81596 413.10442,127.9363 L 421.39437,127.9363 C 423.06985,128.08166 422.65974,130.05192 422.51032,130.32763 L 422.01203,131.93768 z "
     id="G"
     sodipodi:nodetypes="cccccccccccccccccccccc"
     inkscape:label="#path5218" />
  <path
     style="fill:#000000;fill-opacity:1;fill-rule:evenodd;stroke:#000000;stroke-width:1px;stroke-linecap:butt;stroke-linejoin:miter;stroke-opacity:1"
     d="M 469.70653,181.3427 L 501.39644,114.25225 L 513.35606,114.17382 L 511.45144,146.55244 L 526.87789,114.26466 L 540.0208,114.13267 L 508.90779,181.3427 L 495.53427,181.3427 L 497.42647,151.74687 L 483.89611,181.31397 L 469.70653,181.3427 z "
     id="N1"
     sodipodi:nodetypes="ccccccccccc"
     inkscape:label="#path2218" />
  <path
     style="fill:#000000;fill-opacity:1;fill-rule:evenodd;stroke:#000000;stroke-width:1px;stroke-linecap:butt;stroke-linejoin:miter;stroke-opacity:1"
     d="M 530.37885,181.3427 C 531.41774,179.78437 555.24224,127.34547 555.24224,127.34547 L 543.36493,127.38662 L 550.45156,113.77395 L 588.55648,113.8151 L 582.15001,127.32062 L 568.47134,127.32062 L 543.35134,181.30196 L 530.37885,181.3427 z "
     id="T"
     sodipodi:nodetypes="ccccccccc"
     inkscape:label="#path2220" />
  <path
     style="fill:#000000;fill-opacity:1;fill-rule:evenodd;stroke:#000000;stroke-width:1px;stroke-linecap:butt;stroke-linejoin:miter;stroke-opacity:1"
     d="M 422.33915,181.29899 L 454.06715,114.24592 L 492.0103,114.24592 L 485.94861,127.87611 L 460.62527,127.88486 L 456.75102,136.33625 L 481.84146,136.43291 L 475.99935,149.65019 L 450.56185,149.60623 L 442.29503,167.9321 L 467.54358,168.02876 L 461.49941,181.3427 L 422.33915,181.29899 z "
     id="E3"
     sodipodi:nodetypes="ccccccccccccc"
     inkscape:label="#path2222" />
  <path
     style="fill:#000000;fill-opacity:1;fill-rule:evenodd;stroke:#000000;stroke-width:1px;stroke-linecap:butt;stroke-linejoin:miter;stroke-opacity:1"
     d="M 514.92904,90.45277 L 546.65703,23.3997 L 584.60018,23.3997 L 578.53849,37.02988 L 553.21515,37.03864 L 549.3409,45.49002 L 574.43134,45.58669 L 568.58923,58.80397 L 543.15173,58.76001 L 534.88491,77.08588 L 560.13347,77.18254 L 554.08929,90.49648 L 514.92904,90.45277 z "
     id="E2"
     sodipodi:nodetypes="ccccccccccccc"
     inkscape:label="#path2224" />
  <path
     style="fill:#000000;fill-opacity:1;fill-rule:evenodd;stroke:#000000;stroke-width:1px;stroke-linecap:butt;stroke-linejoin:miter;stroke-opacity:1"
     d="M 687.08905,181.3427 L 693.28259,168.43445 L 718.69238,168.5427 L 725.90195,152.64593 C 726.63226,150.55668 726.45054,148.46742 723.01163,148.72335 L 709.79872,147.89754 C 706.6775,147.25667 705.6224,143.17227 706.28905,140.46529 L 715.78582,119.82012 C 717.41379,116.67632 719.61567,114.68036 723.42453,114.86529 L 756.34544,114.99635 L 750.46969,128.07819 L 727.34711,127.66529 C 725.85625,127.89379 723.5619,131.56581 722.53017,134.20478 C 722.27696,136.683 723.17158,136.52118 724.86969,136.81851 L 740.35356,137.36851 C 743.48481,138.23809 743.69124,143.01155 742.83098,144.38787 L 728.20887,176.29276 C 726.52053,179.06284 724.30716,181.30867 720.53421,181.3427 L 687.08905,181.3427 z "
     id="S2"
     sodipodi:nodetypes="ccccccccccccccccccc"
     inkscape:label="#path2226" />
  <path
     style="fill:#000000;fill-opacity:1;fill-rule:evenodd;stroke:#000000;stroke-width:1px;stroke-linecap:butt;stroke-linejoin:miter;stroke-opacity:1"
     d="M 563.08475,90.49648 L 569.27829,77.58823 L 594.68808,77.69648 L 601.89765,61.79971 C 602.62796,59.71046 602.44624,57.6212 599.00733,57.87713 L 585.79442,57.05132 C 582.6732,56.41045 581.6181,52.32605 582.28475,49.61907 L 591.78152,28.9739 C 593.40949,25.8301 595.61137,23.83414 599.42023,24.01907 L 632.34114,24.15013 L 626.46539,37.23197 L 603.34281,36.81907 C 601.85195,37.04757 599.5576,40.71959 598.52587,43.35856 C 598.27266,45.83678 599.16728,45.67496 600.86539,45.97229 L 616.34926,46.52229 C 619.48051,47.39187 619.68694,52.16533 618.82668,53.54165 L 604.20457,85.44654 C 602.51623,88.21662 600.30286,90.46245 596.52991,90.49648 L 563.08475,90.49648 z "
     id="S1"
     sodipodi:nodetypes="ccccccccccccccccccc"
     inkscape:label="#path3198" />
  <path
     style="fill:#000000;fill-opacity:1;fill-rule:evenodd;stroke:#000000;stroke-width:1px;stroke-linecap:butt;stroke-linejoin:miter;stroke-opacity:1"
     d="M 590.02461,181.3427 L 621.71452,114.25225 L 633.67414,114.17382 L 631.76952,146.55244 L 647.19597,114.26466 L 660.33888,114.13267 L 629.22587,181.3427 L 615.85235,181.3427 L 617.74455,151.74687 L 604.21419,181.31397 L 590.02461,181.3427 z "
     id="N2"
     sodipodi:nodetypes="ccccccccccc"
     inkscape:label="#path7999" />
  <path
     style="fill:#000000;fill-opacity:1;fill-rule:evenodd;stroke:#000000;stroke-width:1px;stroke-linecap:butt;stroke-linejoin:miter;stroke-opacity:1"
     d="M 137.97623,23.12148 L 106.60123,90.43398 L 120.00748,90.43398 L 131.81998,65.37148 L 140.25748,65.27773 C 143.75214,65.47152 141.35755,70.24635 141.28873,71.18398 L 132.19498,90.49648 L 145.19498,90.40273 L 153.25748,72.21523 L 155.10123,68.21523 L 156.97623,64.21523 C 157.2515,62.9077 158.67582,61.04527 156.53873,57.80898 C 159.45157,57.72139 161.28672,55.3376 163.35123,51.62148 L 171.81998,31.59023 C 172.71593,29.22015 172.9191,23.4784 169.35123,23.34023 L 137.97623,23.12148 z M 144.97623,36.90273 L 153.88248,36.90273 C 156.37899,36.81482 156.58329,37.60683 155.75748,39.80898 L 149.56998,52.87148 L 137.69498,52.65273 L 144.97623,36.90273 z "
     id="R1"
     inkscape:label="#path8990" />
  <path
     style="fill:#000000;fill-opacity:1;fill-rule:evenodd;stroke:#000000;stroke-width:1px;stroke-linecap:butt;stroke-linejoin:miter;stroke-opacity:1"
     d="M 185.59302,23.12148 L 154.21802,90.43398 L 167.62427,90.43398 L 179.43677,65.371476 L 187.87427,65.277726 C 191.36893,65.471516 188.97434,70.246346 188.90552,71.183976 L 179.81177,90.49648 L 192.81177,90.40273 L 200.87427,72.215226 L 202.71802,68.215226 L 204.59302,64.215226 C 204.86829,62.907696 206.29261,61.045266 204.15552,57.808976 C 207.06836,57.721386 208.90351,55.337596 210.96802,51.62148 L 219.43677,31.59023 C 220.33272,29.22015 220.53589,23.4784 216.96802,23.34023 L 185.59302,23.12148 z M 192.59302,36.90273 L 201.49927,36.90273 C 203.99578,36.81482 204.20008,37.60683 203.37427,39.80898 L 197.18677,52.87148 L 185.31177,52.65273 L 192.59302,36.90273 z "
     id="R2"
     inkscape:label="#path8990" />
  <path
     style="fill:#000000;fill-opacity:1;fill-rule:evenodd;stroke:#000000;stroke-width:1px;stroke-linecap:butt;stroke-linejoin:miter;stroke-opacity:1"
     d="M 378.15518,23.12148 L 346.78018,90.43398 L 360.18643,90.43398 L 371.99893,65.371482 L 380.43643,65.277732 C 383.93109,65.471522 381.5365,70.24635 381.46768,71.18398 L 372.37393,90.49648 L 385.37393,90.40273 L 393.43643,72.21523 L 395.28018,68.21523 L 397.15518,64.215232 C 397.43045,62.907702 398.85477,61.045272 396.71768,57.808982 C 399.63052,57.721392 401.46567,55.337602 403.53018,51.62148 L 411.99893,31.59023 C 412.89488,29.22015 413.09805,23.4784 409.53018,23.34023 L 378.15518,23.12148 z M 385.15518,36.90273 L 394.06143,36.90273 C 396.55794,36.81482 396.76224,37.60683 395.93643,39.80898 L 389.74893,52.87148 L 377.87393,52.65273 L 385.15518,36.90273 z "
     id="R3"
     inkscape:label="#path8990" />
  <path
     style="fill:#000000;fill-opacity:1;fill-rule:evenodd;stroke:#000000;stroke-width:1px;stroke-linecap:butt;stroke-linejoin:miter;stroke-opacity:1"
     d="M 425.9022,23.12148 L 394.5272,90.43398 L 407.93345,90.43398 L 419.74595,65.37148 L 428.18345,65.27773 C 431.67811,65.47152 429.28352,70.24635 429.2147,71.18398 L 420.12095,90.49648 L 433.12095,90.40273 L 441.18345,72.21523 L 443.0272,68.21523 L 444.9022,64.21523 C 445.17747,62.9077 446.60179,61.04527 444.4647,57.80898 C 447.37754,57.72139 449.21269,55.3376 451.2772,51.62148 L 459.74595,31.59023 C 460.6419,29.22015 460.84507,23.4784 457.2772,23.34023 L 425.9022,23.12148 z M 432.9022,36.90273 L 441.80845,36.90273 C 444.30496,36.81482 444.50926,37.60683 443.68345,39.80898 L 437.49595,52.87148 L 425.62095,52.65273 L 432.9022,36.90273 z "
     id="R4"
     inkscape:label="#path8990" />
  <path
     style="fill:#000000;fill-opacity:1;fill-rule:evenodd;stroke:#000000;stroke-width:1px;stroke-linecap:butt;stroke-linejoin:miter;stroke-opacity:1"
     d="M 357.16748,113.42859 L 325.79248,180.74109 L 339.19873,180.74109 L 351.01123,155.67859 L 359.44873,155.58484 C 362.94339,155.77863 360.5488,160.55346 360.47998,161.49109 L 351.38623,180.80359 L 364.38623,180.70984 L 372.44873,162.52234 L 374.29248,158.52234 L 376.16748,154.52234 C 376.44275,153.21481 377.86707,151.35238 375.72998,148.11609 C 378.64282,148.0285 380.47797,145.64471 382.54248,141.92859 L 391.01123,121.89734 C 391.90718,119.52726 392.11035,113.78551 388.54248,113.64734 L 357.16748,113.42859 z M 364.16748,127.20984 L 373.07373,127.20984 C 375.57024,127.12193 375.77454,127.91394 374.94873,130.11609 L 368.76123,143.17859 L 356.88623,142.95984 L 364.16748,127.20984 z "
     id="R5"
     inkscape:label="#path8990" />
  <path
     style="fill:#000000;fill-opacity:1;fill-rule:evenodd;stroke:#000000;stroke-width:1px;stroke-linecap:butt;stroke-linejoin:miter;stroke-opacity:1"
     d="M 237.88924,24.21523 C 234.39458,24.85336 232.53605,26.99771 230.67049,30.21523 L 206.10799,82.84023 C 205.10576,85.7268 206.26598,89.85528 209.60799,90.43398 L 236.23299,90.49648 C 240.1368,90.19681 242.2933,87.3238 243.88924,84.30898 L 268.45174,30.62148 C 269.52466,28.35239 267.89775,24.3122 265.57674,24.21523 L 237.88924,24.21523 z M 240.17049,37.43398 L 250.70174,37.43398 C 252.06307,37.31511 252.59655,39.64251 251.51424,41.15273 L 234.92049,77.40273 L 223.85799,77.27773 C 222.42785,76.78474 222.49102,75.88802 223.23299,74.30898 L 240.17049,37.43398 z "
     id="O1"
     inkscape:label="#path9009" />
  <path
     style="fill:#000000;fill-opacity:1;fill-rule:evenodd;stroke:#000000;stroke-width:1px;stroke-linecap:butt;stroke-linejoin:miter;stroke-opacity:1"
     d="M 672.73018,115.06145 C 669.23552,115.69958 667.37699,117.84393 665.51143,121.06145 L 640.94893,173.68645 C 639.9467,176.57302 641.10692,180.7015 644.44893,181.2802 L 671.07393,181.3427 C 674.97774,181.04303 677.13424,178.17002 678.73018,175.1552 L 703.29268,121.4677 C 704.3656,119.19861 702.73869,115.15842 700.41768,115.06145 L 672.73018,115.06145 z M 675.01143,128.2802 L 685.54268,128.2802 C 686.90401,128.16133 687.43749,130.48873 686.35518,131.99895 L 669.76143,168.24895 L 658.69893,168.12395 C 657.26879,167.63096 657.33196,166.73424 658.07393,165.1552 L 675.01143,128.2802 z "
     id="O2"
     inkscape:label="#path9014" />
</svg>
